# xmcd CD database file
#
# Track frame offsets:
#	150
#	18937
#	36322
#	54885
#	81225
#	99007
#
# Disc length: 1536 seconds
#
# Revision: 0
# Processed by: cddbd v1.5.1PL0 Copyright (c) Steve Scherf et al.
# Submitted via: CDex 1.51
#
DISCID=3805fe06
DTITLE=武田愛可 - HOT MILK
DYEAR=2001
DGENRE=JPop
TTITLE0=あなたに首ったけ
TTITLE1=雨のち晴れトキドキ曇り
TTITLE2=HOT MILK
TTITLE3=ラブ＆ピース
TTITLE4=お願いDarlin’
TTITLE5=ワ・タ・シ・イ・ロ
EXTD=YEAR: 2001
EXTT0=
EXTT1=
EXTT2=
EXTT3=
EXTT4=
EXTT5=
PLAYORDER=
